<mxfile host="app.diagrams.net" agent="Mozilla/5.0 (Macintosh; Intel Mac OS X 10_15_7) AppleWebKit/605.1.15 (KHTML, like Gecko) Version/18.0.1 Safari/605.1.15" version="24.7.17">
  <diagram name="Page-1" id="NrheNTIjkuT95rya9VAQ">
    <mxGraphModel>
      <root>
        <mxCell id="0" />
        <mxCell id="1" parent="0" />
        <mxCell id="2" value="sum Module" style="whiteSpace=wrap;strokeWidth=2;verticalAlign=top;" vertex="1" parent="1">
          <mxGeometry x="8" y="8" width="564" height="424" as="geometry" />
        </mxCell>
        <mxCell id="3" value="a" style="whiteSpace=wrap;strokeWidth=2;" vertex="1" parent="2">
          <mxGeometry x="43" y="46" width="68" height="49" as="geometry" />
        </mxCell>
        <mxCell id="4" value="sum" style="whiteSpace=wrap;strokeWidth=2;" vertex="1" parent="2">
          <mxGeometry x="218" y="192" width="89" height="49" as="geometry" />
        </mxCell>
        <mxCell id="5" value="b" style="whiteSpace=wrap;strokeWidth=2;" vertex="1" parent="2">
          <mxGeometry x="161" y="46" width="69" height="49" as="geometry" />
        </mxCell>
        <mxCell id="6" value="cy_in" style="whiteSpace=wrap;strokeWidth=2;" vertex="1" parent="2">
          <mxGeometry x="280" y="46" width="98" height="49" as="geometry" />
        </mxCell>
        <mxCell id="7" value="sum" style="whiteSpace=wrap;strokeWidth=2;" vertex="1" parent="2">
          <mxGeometry x="218" y="338" width="89" height="49" as="geometry" />
        </mxCell>
        <mxCell id="8" value="t[7:0]" style="whiteSpace=wrap;strokeWidth=2;" vertex="1" parent="2">
          <mxGeometry x="428" y="46" width="101" height="49" as="geometry" />
        </mxCell>
        <mxCell id="9" value="Input" style="curved=1;startArrow=none;endArrow=block;exitX=0.5;exitY=0.98;entryX=0;entryY=0.13;" edge="1" parent="2" source="3" target="4">
          <mxGeometry relative="1" as="geometry">
            <Array as="points">
              <mxPoint x="77" y="143" />
            </Array>
          </mxGeometry>
        </mxCell>
        <mxCell id="10" value="Input" style="curved=1;startArrow=none;endArrow=block;exitX=0.51;exitY=0.98;entryX=0.25;entryY=-0.01;" edge="1" parent="2" source="5" target="4">
          <mxGeometry relative="1" as="geometry">
            <Array as="points">
              <mxPoint x="196" y="143" />
            </Array>
          </mxGeometry>
        </mxCell>
        <mxCell id="11" value="Input" style="curved=1;startArrow=none;endArrow=block;exitX=0.5;exitY=0.98;entryX=0.75;entryY=-0.01;" edge="1" parent="2" source="6" target="4">
          <mxGeometry relative="1" as="geometry">
            <Array as="points">
              <mxPoint x="329" y="143" />
            </Array>
          </mxGeometry>
        </mxCell>
        <mxCell id="12" value="Output" style="curved=1;startArrow=none;endArrow=block;exitX=0.5;exitY=0.99;entryX=0.5;entryY=0;" edge="1" parent="2" source="4" target="7">
          <mxGeometry relative="1" as="geometry">
            <Array as="points" />
          </mxGeometry>
        </mxCell>
        <mxCell id="13" value="" style="curved=1;dashed=1;dashPattern=2 3;startArrow=none;endArrow=block;exitX=0.5;exitY=0.98;entryX=1;entryY=0.18;" edge="1" parent="2" source="8" target="4">
          <mxGeometry relative="1" as="geometry">
            <Array as="points">
              <mxPoint x="478" y="143" />
            </Array>
          </mxGeometry>
        </mxCell>
      </root>
    </mxGraphModel>
  </diagram>
</mxfile>
